<svg xmlns="http://www.w3.org/2000/svg" viewBox="0 0 1920.26 161.09"><g data-name="Layer 2"><path d="M0 0v91.06a10.53 10.53 0 0 0 3.57-.71C4.44 90 7.08 97.1 10 98.74c4.61 2.57 8 6.72 13.65 8.24 7.9 2.14 9.32 2.69 15.47-3.65 1.09-1.12 2.8-1.61 4.23-2.37 4-2.12 7.91-4.82 12.18-6.13 2.52-.77 5.93.09 8.47 1.27 3.8 1.78 11.64 1.27 15-1.87 3-2.77 5.87-6 10.49-4.31 1.45.53 2.67 1.73 4 2.62l-.24 1.7c3.68-1.35 7.29-3.36 11.08-3.88 4.59-.63 9.82-1.24 13.89.4 5.1 2 8.5.47 13.35-3.37l-2.16 5 1.22 1.35c8.33-7 16.3-14.51 25.08-20.84 8.44-6.09 18.49-9.73 26.13-18.6 2.69 4.38 4.78 8.15 7.23 11.65 2.8 4 10.25 3.73 14.09-.63 1 .87 2.39 1.55 2.87 2.66 1.23 2.87 1.32 3.17 3.86.42 2.87-3.1 6.11.62 7.37 3 2.08 4 4.11 4 8 2.79 6.35-2 12.93-4.93 19-5.63 6.39-.73 10.34-4 15.07-6.79 1.68-1 2.71-3.06 4.23-4.41 2.73-2.44 5.6-4.71 9.37-7.85-1 2.28-1.69 3.46-2.13 4.72s-1.14 2.63-.77 3.54c1.72 4.25 3.77 8.36 6.19 13.55l.26-4.48c3 2.32 5.79 6.06 9 6.43 2.88.34 6.19-3 9.59-4.86l-1 3.39L308 75.53l9.15-3.75-.33 5.79 6-3.42c5.51 8.11 17.5 9.66 28.26 3.65.18 3.85 3.61 5.08 11.08 4-.13.68-.27 1.35-.49 2.42l3.33-1.27c.86 2.11 1.29 4.37 2.56 5.89s3.23 2 5.22 3.08l2.22-2.75c3.11 10 10.74 10 19.36 8.35.44 3.17.83 7 5.4 3.22 2-1.66 4.11-3.26 6.32-5l.26 3.62 16.63-.23.2 3.9c5.6-.89 10.85-2.22 16.11-2.33 2.16 0 4.36 2.55 6.53 3.93l12.69-5.1 4.08 9.54c4.12-5.49 8.19-2 12.25-1.06.61.14 1.41.36 1.87.09 3-1.73 5.9-3.57 8.8-5.45.12-.08-.25-1-.36-1.33L499.4 100l2.06 7.86 1.42-.09 2.47-10.29c2.37 4.09 4.87 4.23 7.71.59l-.81 2.67L520 99l-.56 4 1.9.35 1.85-9.2 11 5.56c2-2.23 3.18-.08 4.26 3.69l6.6-5.53-.88 3.49c1.59 1.55 2.93 2.82 4.23 4.14s2.26 2.38 4 4.19l.62 5.39c2.54-1.24 4.52-1.88 6.15-3 5.75-4.1 11.62-1.82 17 .13 7.63 2.79 12.91 2.33 18-3.37 1.23 4.21 6.55 5.41 9.91 2.67 3.5 3 7.16 5.69 10.22 9 1.44 1.54 1.61 4.27 2.54 6.38a24.8 24.8 0 0 0 2.12 3.35l2.66-4.75 4.66 3.1.1-5 9.5 10c7.3-3.83 11.76-3 13 3.18l20.12-9.45.27 2.42c3.31 1.39 5.69 2.54 8.17 3.37a45.11 45.11 0 0 0 6 1.34c3.86.74 7.78 1.26 11.6 2.17 5.23 1.25 10.25 4.83 15.81.68.56-.42 2.2.71 3.75 1.27l.63-4.53c3.89 7 10.6 4.47 15.6 6.36l5.17-7.21 8.2 5.75c1.49-.62 3.25-1.43 5.06-2.09 1.1-.4 2.72-2.78 3.13.62l7.28-2.17.45 3 10-6.34a6.4 6.4 0 0 0 10.31.07c2.1 1 4.13 2.87 6.12 2.81 2.18-.06 4.33-1.86 6.14-1.85a75.18 75.18 0 0 1 9.07 2c3.85 1.35 7.51 3.24 11.56 5 2.58-2.94 5.43-7.35 9.34-10.27 2.91-2.17 7.18-2.42 10.83-3.53a12.45 12.45 0 0 0 13 5.44c2.54-.47 5.35.6 8.21 1 .06 3.78.82 6 5.89 4.33 5.39-1.78 11.24-2.08 17.7-3.16l.21-5c5.4 4 6.34-1.11 8.44-4.2a3.49 3.49 0 0 1 2.25-1.21c5.33-.68 2.66-2.83.84-4.93 3.36-.3 6.77-.13 9.91-1 7.45-2 14.7-4.92 22.21-6.66 2.93-.68 6.3 1 9.5 1.26 3.61.27 6.63-.79 7.4-5.74l3.13 6.74a16.92 16.92 0 0 0 3-1c12.07-7 21.87.85 32.26 4.91a35.87 35.87 0 0 0 5.25 1.43c1.26.28 2.56.38 4.77.68-1.25 1.27-1.76 1.85-2.34 2.35s-1.06.73-2.83 1.92c3.06-.05 4.86.32 6.35-.21 2-.72 3.53-.29 5.52 0 3.89.55 8.06-.93 12.39-1.62l.06 3.19c3.85-1.18 7.32-3.09 10.79-3.11 5.52 0 11.32.33 16.47 2.1 5.37 1.84 8.14-.26 10.83-4.18.71-1 1.4-2.08 2.18-3.23.24 11.77 6.4.44 9.59 2.8l-1.42 4.89c7.11 4.83 11.14-.71 16-4.92l2 5.54 8.64-5.24 8.84-.09c1.56 1.77 3.56 2.13 5.69-.26 1.06 1.68 1.9 4.57 3.37 5a14.9 14.9 0 0 0 8.35-.52c2.56-.9 4.52-3.68 7.08-4.54a22.67 22.67 0 0 1 9.57-1.08c6.17.71 12.22 2.41 18.39 3.13 2.48.29 5.14-.91 7.7-1.52 4.37-1 6.93 1 8.25 5.9l7.9-4.43c1.58 1.68 3.13 3.5 4.86 5.13a25.8 25.8 0 0 0 3.45 2.36l2.28-4 16.29 6.17c-1.84 4.59 2.22 6.35 5.88 7.86 1.29.53 3.29-.75 5.32-1.3 2.6 5.24 5.39.54 8.51-1.51l1.5 4.24c3-3.25 6.7-5.92 8.63-9.56 5.08-9.58 5.71-10.22 15.93-8.35a4.28 4.28 0 0 0 2.39-.65c5.89-3 10.93-1.78 16.25 2 3.6 2.58 8.31 3.52 12.51 5.22a21.34 21.34 0 0 1 3.82 1.78c4.44 2.94 8.6 5.6 14.26 2 1.85-1.18 5.39-.7 7.69.24 7.32 3 14.22 7.12 21.65 9.71 5.84 2 12.67 4.38 18.28 3 7-1.68 13.54.59 20.21-.52.67-.11 1.7.42 2 .09 6.8-6.61 13 .49 19.45.71 5.18.18 10.38.09 15.55.32 2.59.11 5.17.68 8.81 1.18 0 0 1.24 1.63 2.37 1.58 4-.2 7.59-.4 9.19 4.49a3.08 3.08 0 0 0 2.74 1.46c.84-.27 1.61-1.67 1.88-2.73s-.25-2 .62-3.6c.5.75 1.39 1.49 1.42 2.26.07 1.78-.59 3.63-.37 5.37a26 26 0 0 0 1.75 5.19 51 51 0 0 0 4.49-3c5.34-4.36 10.58-8.84 15.95-13.17a2.44 2.44 0 0 1 2.39.09c4.13 3.76 5.86.47 8.32-2.46a60.76 60.76 0 0 1 9.9-9.55c4.13-3.1 7.32-1.85 10.27 2.75 3.8 5.92 9.81 6.26 15.52 1.93 4.39-3.32 9.14-4.69 14.56-3.16a6 6 0 0 0 4-.41c6.2-3.19 12.26-6.68 18.48-9.82 1.26-.63 3-.17 5-.22l1.24-9 1.9 5.13a43.28 43.28 0 0 1 5.62-3.08c5.22-1.85 9.92-3.71 15.58.64 3.71 2.85 9.74 2.44 14.64 3.8 2.74.76 5.26 2.83 8 3.08 4.15.39 8.68.59 12.52-.75 3.54-1.24 6.28-4.8 9.6-7 1.31-.85 3.34-.41 4.89-1 6.06-2.24 13.3.67 18.44-6.59 3.16-4.47 9.47-7.1 15.5-6.51 7.37.72 11.94-4.38 15.14-9 3.63-5.25 8-8.92 12.8-12.48 4.51-3.32 8.85-6.87 13.36-10.18a6.15 6.15 0 0 1 3.39-1c5-.07 10 .67 14.88-.1a183.81 183.81 0 0 0 22.87-5.33c3.27-1 6.14-3.38 9.18-3.88 3.27.07 6.55.27 9.82.18 9.18-.26 16.25-6.6 24.61-9.22a26.07 26.07 0 0 1 5.18-.56c8.28-.82 16.57-1.62 24.84-2.51a4.72 4.72 0 0 0 2.83-1.19c8.07-8.93 17.71-6 27.4-4.56 2.37.36 5.24-1.75 7.71-3.07 6.07-3.26 12.06-6.69 18.05-10.11 2.35-1.34 5-2.42 6.83-4.33 4.5-4.74 10.7-6.6 16.68-4.69a56.23 56.23 0 0 0 8.11 1.46c1 .17 2.28-.13 3.06.38 4.34 2.8 8.25 6.61 12.92 8.47s9.93 1.8 15 2.5c2.26.31 4.54.49 6.81.73V0z" fill="#b8d3cb" data-name="Layer 1"/></g></svg>